<svg width="43" height="70" viewBox="0 0 43 70" fill="none" xmlns="http://www.w3.org/2000/svg">
<path d="M33.5156 0.234375V5.15625H32.8594C24.7031 5.15625 18.2812 7.5625 13.5938 12.375C8.90625 17.1562 6.3125 23.8125 5.8125 32.3438C7.6875 29.75 10.0781 27.75 12.9844 26.3438C15.8906 24.9062 19.1406 24.1875 22.7344 24.1875C28.7344 24.1875 33.5 26.2656 37.0312 30.4219C40.5938 34.5469 42.375 39.9531 42.375 46.6406C42.375 51.0781 41.5469 55.0781 39.8906 58.6406C38.2344 62.2031 35.8594 64.9844 32.7656 66.9844C29.6719 68.9531 26.1406 69.9375 22.1719 69.9375C15.6406 69.9375 10.3281 67.5781 6.23438 62.8594C2.14062 58.1094 0.09375 51.9844 0.09375 44.4844V38.8594C0.09375 26.6406 2.875 17.1875 8.4375 10.5C14 3.78125 21.8906 0.359375 32.1094 0.234375H33.5156ZM21.8438 29.0156C18.2812 29.0156 14.9531 30.0781 11.8594 32.2031C8.79688 34.2969 6.75 36.9688 5.71875 40.2188V45C5.71875 50.9375 7.23438 55.7812 10.2656 59.5312C13.3281 63.2812 17.2969 65.1562 22.1719 65.1562C26.5469 65.1562 30.0781 63.4219 32.7656 59.9531C35.4844 56.4844 36.8438 52.1094 36.8438 46.8281C36.8438 41.4531 35.4844 37.1406 32.7656 33.8906C30.0781 30.6406 26.4375 29.0156 21.8438 29.0156Z" fill="#6200EE"/>
</svg>
